<?xml version="1.0" encoding="UTF-8"?>
<svg id="uuid-a8853f2b-0c2a-4532-bc88-84b68decf55a" xmlns="http://www.w3.org/2000/svg" viewBox="0 0 759.54 126.95">
  <defs>
    <style>
      .cls-1 {
        fill: #9e9787;
      }
    </style>
  </defs>
  <path class="cls-1" d="M365.78,75.75c-27.06-13.69-46.92-6.83-73.07,2.2-20.2,6.98-44.78,15.47-78.9,15.47h0c-4.31,0-8.76-.13-13.39-.42-40.81-2.57-87.41-16.54-142.42-42.71-.71-.34-1.01-1.19-.68-1.9h0c.34-.71,1.18-1,1.89-.66,54.69,26.01,100.95,39.9,141.39,42.44,40.67,2.56,67.5-6.71,91.18-14.89,22.07-7.62,40.7-14.06,63.24-6.96l10.74,7.43Z"/>
  <path class="cls-1" d="M33.93,79.36s1.26-1.15,3.34-2.81c2.44,.31,4.83,.39,7.03,.12,11.33-1.41,20.06-6.94,20.72-12.78,10.67-.38,19.37,3.37,20.18,9.09,.9,6.39-8.37,12.81-20.71,14.35-12.34,1.54-30.56-7.96-30.56-7.96h0Z"/>
  <path class="cls-1" d="M59.46,93s1.14-1.25,3.06-3.09c2.46,.1,4.84-.03,7.01-.49,11.14-2.39,19.31-8.65,19.4-14.52,10.59-1.3,19.61,1.68,20.96,7.31,1.52,6.28-7.09,13.49-19.23,16.09s-31.19-5.29-31.19-5.29h-.01Z"/>
  <path class="cls-1" d="M86.56,104.12s.97-1.38,2.62-3.43c2.45-.2,4.8-.61,6.88-1.33,10.73-3.71,17.98-10.91,17.28-16.75,10.32-2.57,19.67-.7,21.77,4.73,2.35,6.05-5.23,14.23-16.91,18.27-11.69,4.04-31.64-1.49-31.64-1.49Z"/>
  <path class="cls-1" d="M112.21,112.28s.97-1.38,2.62-3.43c2.45-.2,4.8-.61,6.88-1.33,10.73-3.71,17.98-10.91,17.29-16.75,10.32-2.57,19.67-.7,21.77,4.73,2.35,6.05-5.23,14.24-16.91,18.27-11.69,4.04-31.64-1.49-31.64-1.49,0,0-.01,0-.01,0Z"/>
  <path class="cls-1" d="M139.31,120.26s.85-1.45,2.32-3.62c2.42-.38,4.73-.97,6.75-1.84,10.38-4.5,17.01-12.23,15.82-18,10.07-3.34,19.54-2.17,22.09,3.07,2.85,5.86-4.01,14.59-15.32,19.49-11.31,4.91-31.66,.89-31.66,.89h0Z"/>
  <path class="cls-1" d="M167.53,126.43s.72-1.51,2-3.78c2.38-.56,4.63-1.32,6.57-2.35,9.97-5.28,15.92-13.48,14.25-19.14,9.76-4.09,19.29-3.65,22.28,1.39,3.33,5.63-2.77,14.85-13.63,20.59-10.86,5.75-31.48,3.28-31.48,3.28h0Z"/>
  <path class="cls-1" d="M33.19,73.31c-11.12-2.1-22.97-9.22-22.97-9.22,0,0,15.82-12.72,28.24-13.52,12.42-.8,22.88,3.76,23.35,10.19,.04,.53,0,1.05-.09,1.57-1.04,5.79-10.13,10.79-21.53,11.53-2.21,.14-4.59-.08-7.01-.53v-.02h.01Z"/>
  <path class="cls-1" d="M14.01,38.56C5.87,31.09,0,19.03,0,19.03c0,0,20.6-2.55,31.5,3.14,10.9,5.7,17.07,14.89,13.78,20.53-.27,.46-.6,.88-.98,1.27-4.2,4.32-14.71,3.86-24.72-1.38-1.94-1.02-3.81-2.42-5.58-4.04h.01Z"/>
  <path class="cls-1" d="M72.42,44.41c3.83-4.15,4.19-13.11,.45-22.2-.62-1.51-1.5-3.01-2.53-4.47,.7-3.87,1.45-6.51,1.45-6.51,0,0,17.56,10.51,22.09,21.49,4.53,10.98,3.06,21.78-3.28,24.13-.52,.19-1.06,.32-1.61,.39-5.47,.69-12.22-4.56-16.57-12.83Z"/>
  <path class="cls-1" d="M97.71,53.87c3.53-4.38,3.26-13.35-1.12-22.18-.73-1.46-1.7-2.9-2.84-4.3,.43-3.91,.99-6.59,.99-6.59,0,0,18.27,9.38,23.56,20.05s4.59,21.54-1.57,24.28c-.5,.22-1.03,.38-1.58,.48-5.41,1.04-12.51-3.77-17.44-11.75h0Z"/>
  <path class="cls-1" d="M122.78,60.54c2.96-4.75,1.57-13.62-3.87-21.9-.91-1.37-2.05-2.69-3.36-3.95-.06-3.93,.16-6.65,.16-6.65,0,0,19.31,7.27,25.89,17.28s7.24,20.88,1.46,24.29c-.47,.28-.98,.49-1.51,.66-5.25,1.63-12.9-2.35-18.78-9.72h0Z"/>
  <path class="cls-1" d="M148.25,67.47c2.96-4.75,1.58-13.62-3.88-21.9-.9-1.37-2.05-2.69-3.35-3.95-.06-3.93,.16-6.65,.16-6.65,0,0,19.31,7.27,25.89,17.28s7.24,20.88,1.46,24.29c-.48,.28-.98,.49-1.5,.66-5.25,1.63-12.9-2.35-18.78-9.72h0Z"/>
  <path class="cls-1" d="M174.28,72.76c2.67-4.9,.75-13.68-5.2-21.65-.98-1.32-2.21-2.58-3.59-3.76-.3-3.92-.24-6.65-.24-6.65,0,0,19.72,6.21,26.9,15.84,7.18,9.63,8.5,20.45,2.94,24.17-.46,.3-.95,.55-1.46,.74-5.14,1.92-13.02-1.64-19.34-8.68h0Z"/>
  <path class="cls-1" d="M199.57,77.64c2.67-4.9,.75-13.68-5.2-21.65-.99-1.32-2.21-2.58-3.59-3.76-.3-3.92-.24-6.65-.24-6.65,0,0,19.72,6.21,26.9,15.84,7.18,9.63,8.5,20.45,2.94,24.17-.46,.3-.95,.55-1.47,.74-5.13,1.92-13.02-1.64-19.34-8.68h0Z"/>
  <path class="cls-1" d="M47.66,29.98c-.81-1.96-1.29-4.17-1.56-6.49-1.21-10.67,2.42-23.49,2.42-23.49,0,0,13.06,7.83,19.56,17.02,1.03,1.46,1.91,2.96,2.53,4.47,3.75,9.09,3.38,18.05-.44,22.2-.8,.86-1.74,1.52-2.83,1.93-.52,.19-1.06,.31-1.61,.38-6.15,.78-13.91-5.94-18.07-16.03h0Z"/>
  <path class="cls-1" d="M410.32,66.23c18.88-3.33,35.5,2.41,54.74,9.05,23.68,8.18,50.51,17.45,91.18,14.89,40.44-2.54,86.7-16.43,141.39-42.44,.71-.34,1.55-.05,1.89,.66h0c.33,.71,.03,1.56-.68,1.9-55.01,26.17-101.61,40.14-142.42,42.71-4.63,.29-9.08,.43-13.39,.43h0c-34.12,0-58.7-8.5-78.9-15.48-23.72-8.19-42.26-14.6-65.7-5.5l11.88-6.22Z"/>
  <path class="cls-1" d="M725.61,79.37s-18.22,9.5-30.56,7.96-21.61-7.96-20.71-14.35c.81-5.72,9.51-9.47,20.18-9.09,.66,5.84,9.39,11.37,20.72,12.78,2.2,.27,4.59,.19,7.03-.12,2.08,1.66,3.34,2.81,3.34,2.81h0Z"/>
  <path class="cls-1" d="M700.07,93.01s-19.05,7.89-31.19,5.29-20.75-9.81-19.23-16.09c1.35-5.63,10.37-8.61,20.96-7.31,.09,5.87,8.26,12.13,19.4,14.52,2.17,.46,4.55,.59,7.01,.49,1.92,1.84,3.06,3.09,3.06,3.09h-.01Z"/>
  <path class="cls-1" d="M641.34,105.61c-11.68-4.04-19.26-12.22-16.91-18.27,2.1-5.43,11.45-7.3,21.77-4.73-.7,5.84,6.55,13.04,17.28,16.75,2.08,.72,4.43,1.13,6.88,1.33,1.65,2.05,2.62,3.43,2.62,3.43,0,0-19.95,5.53-31.64,1.49h0Z"/>
  <path class="cls-1" d="M647.32,112.28s-19.95,5.53-31.64,1.49c-11.68-4.03-19.26-12.22-16.91-18.27,2.1-5.43,11.45-7.3,21.77-4.73-.69,5.84,6.56,13.04,17.29,16.75,2.08,.72,4.43,1.13,6.88,1.33,1.65,2.05,2.62,3.43,2.62,3.43h-.01Z"/>
  <path class="cls-1" d="M620.23,120.25s-20.35,4.02-31.66-.89c-11.31-4.9-18.17-13.63-15.32-19.49,2.55-5.24,12.02-6.41,22.09-3.07-1.19,5.77,5.44,13.5,15.82,18,2.02,.87,4.33,1.46,6.75,1.84,1.47,2.17,2.32,3.62,2.32,3.62h0Z"/>
  <path class="cls-1" d="M592.02,126.42s-20.62,2.47-31.48-3.28c-10.86-5.74-16.96-14.96-13.63-20.59,2.99-5.04,12.52-5.48,22.28-1.39-1.67,5.66,4.28,13.86,14.25,19.14,1.94,1.03,4.19,1.79,6.57,2.35,1.28,2.27,2,3.78,2,3.78h0Z"/>
  <path class="cls-1" d="M726.36,73.33c-2.42,.45-4.8,.67-7.01,.53-11.4-.74-20.49-5.74-21.53-11.53-.09-.52-.13-1.04-.09-1.57,.47-6.43,10.93-10.99,23.35-10.19s28.24,13.52,28.24,13.52c0,0-11.85,7.12-22.97,9.22v.02h.01Z"/>
  <path class="cls-1" d="M745.54,38.55c-1.77,1.62-3.64,3.02-5.58,4.04-10.01,5.24-20.52,5.7-24.72,1.38-.38-.39-.71-.81-.98-1.27-3.29-5.64,2.88-14.83,13.78-20.53,10.9-5.69,31.5-3.14,31.5-3.14,0,0-5.87,12.06-14.01,19.53h0Z"/>
  <path class="cls-1" d="M670.55,57.24c-.55-.07-1.09-.2-1.61-.39-6.34-2.35-7.81-13.15-3.28-24.13,4.53-10.98,22.09-21.49,22.09-21.49,0,0,.75,2.64,1.45,6.51-1.03,1.46-1.91,2.96-2.53,4.47-3.74,9.09-3.38,18.05,.45,22.2-4.35,8.27-11.1,13.52-16.57,12.83Z"/>
  <path class="cls-1" d="M661.83,53.86c-4.93,7.98-12.03,12.79-17.44,11.75-.55-.1-1.08-.26-1.58-.48-6.16-2.74-6.86-13.61-1.57-24.28s23.56-20.05,23.56-20.05c0,0,.56,2.68,.99,6.59-1.14,1.4-2.11,2.84-2.84,4.3-4.38,8.83-4.65,17.8-1.12,22.18h0Z"/>
  <path class="cls-1" d="M636.77,60.55c-5.88,7.37-13.53,11.35-18.78,9.72-.53-.17-1.04-.38-1.51-.66-5.78-3.41-5.12-14.28,1.46-24.29s25.89-17.28,25.89-17.28c0,0,.22,2.72,.16,6.65-1.31,1.26-2.45,2.58-3.36,3.95-5.44,8.28-6.83,17.15-3.87,21.9h.01Z"/>
  <path class="cls-1" d="M611.29,67.48c-5.88,7.37-13.53,11.35-18.78,9.72-.52-.17-1.02-.38-1.5-.66-5.78-3.41-5.12-14.28,1.46-24.29s25.89-17.28,25.89-17.28c0,0,.22,2.72,.16,6.65-1.3,1.26-2.45,2.58-3.35,3.95-5.46,8.28-6.84,17.15-3.88,21.9h0Z"/>
  <path class="cls-1" d="M585.25,72.77c-6.32,7.04-14.2,10.6-19.34,8.68-.51-.19-1-.44-1.46-.74-5.56-3.72-4.24-14.54,2.94-24.17,7.18-9.63,26.9-15.84,26.9-15.84,0,0,.06,2.73-.24,6.65-1.38,1.18-2.61,2.44-3.59,3.76-5.95,7.97-7.87,16.75-5.2,21.65h0Z"/>
  <path class="cls-1" d="M559.97,77.65c-6.32,7.04-14.21,10.6-19.34,8.68-.52-.19-1.01-.44-1.47-.74-5.56-3.72-4.24-14.54,2.94-24.17,7.18-9.63,26.9-15.84,26.9-15.84,0,0,.06,2.73-.24,6.65-1.38,1.18-2.6,2.44-3.59,3.76-5.95,7.97-7.87,16.75-5.2,21.65h0Z"/>
  <path class="cls-1" d="M711.88,29.97c-4.16,10.09-11.92,16.81-18.07,16.03-.55-.07-1.09-.19-1.61-.38-1.09-.41-2.03-1.07-2.83-1.93-3.82-4.15-4.19-13.11-.44-22.2,.62-1.51,1.5-3.01,2.53-4.47,6.5-9.19,19.56-17.02,19.56-17.02,0,0,3.63,12.82,2.42,23.49-.27,2.32-.75,4.53-1.56,6.49h0Z"/>
  <path class="cls-1" d="M379.82,93.65l-1.4-3.37c-3.33-8.02-12.89-15.41-28.42-21.96-.57-.25-1.01-.43-1.33-.55-9.6-4.02-16.11-8.33-19.96-13.19-4.01-5.07-6.13-11.43-6.13-18.39,0-8.6,2.67-15.63,7.94-20.89s12.25-7.94,20.76-7.94c7.27,0,13.54,2.05,18.61,6.08,4.15,3.3,7.47,7.9,9.91,13.71,2.41-5.81,5.72-10.41,9.9-13.71,5.1-4.03,11.35-6.08,18.58-6.08,8.56,0,15.55,2.67,20.8,7.94,5.24,5.27,7.9,12.29,7.9,20.89,0,7.02-2.07,13.35-5.99,18.32-3.81,4.84-10.37,9.16-20.04,13.23l-1.23,.55c-15.69,6.61-25.27,14-28.51,21.97l-1.38,3.38Zm-28.54-83.28c-7.69,0-13.96,2.37-18.64,7.06s-7.06,11-7.06,18.77c0,6.28,1.9,11.99,5.48,16.53,3.52,4.45,9.64,8.47,18.71,12.26,.3,.11,.79,.31,1.4,.58,14.53,6.13,24.14,13.11,28.62,20.78,4.43-7.64,14.07-14.62,28.71-20.79l1.23-.56c9.1-3.83,15.44-7.97,18.88-12.34,3.55-4.5,5.35-10.04,5.35-16.47,0-7.77-2.36-14.09-7.03-18.77-4.66-4.68-10.94-7.05-18.67-7.05-6.54,0-12.16,1.83-16.72,5.43-4.59,3.63-8.06,9.07-10.32,16.17l-1.42,4.45-1.44-4.45c-2.3-7.1-5.78-12.54-10.35-16.18-4.53-3.6-10.17-5.43-16.75-5.43Z"/>
</svg>